<svg xmlns="http://www.w3.org/2000/svg" viewBox="0 0 776 168" width="776" height="168" role="img" aria-label="ZAGUMI">
  
  <g transform="translate(24 24) scale(1.2)">
    <path d="M23.84 23.84 L76.16 23.84 L23.84 76.16 L76.16 76.16" fill="none" stroke="#FFFFFF" stroke-width="8" stroke-linecap="round" stroke-linejoin="round"/>
    <circle cx="50.00" cy="13.00" r="7.5" fill="#F5A524"/>
    <circle cx="76.16" cy="23.84" r="6" fill="#FFFFFF"/>
    <circle cx="87.00" cy="50.00" r="6" fill="#FFFFFF"/>
    <circle cx="76.16" cy="76.16" r="6" fill="#FFFFFF"/>
    <circle cx="50.00" cy="87.00" r="6" fill="#FFFFFF"/>
    <circle cx="23.84" cy="76.16" r="6" fill="#FFFFFF"/>
    <circle cx="13.00" cy="50.00" r="6" fill="#FFFFFF"/>
    <circle cx="23.84" cy="23.84" r="6" fill="#FFFFFF"/>
  </g>
  <g transform="translate(180 24)"><g fill="none" stroke-width="16" stroke-linecap="round" stroke-linejoin="round" transform="translate(0 10)"><path d="M10 0 H82 L10 100 H82" stroke="#FFFFFF"/><path d="M110 100 L150 0 L190 100 M127 64 H173" stroke="#FFFFFF"/><path d="M310.63 23.87 A50 50 0 1 0 318 50 H274" stroke="#FFFFFF"/><path d="M346 0 V62 A38 38 0 0 0 422 62 V0" stroke="#FFFFFF"/><path d="M450 100 V0 L492 58 L534 0 V100" stroke="#FFFFFF"/><path d="M562 0 V100" stroke="#FFFFFF"/></g></g>
  
</svg>